<svg width="96" height="21" fill="none" xmlns="http://www.w3.org/2000/svg"><path d="m5.45 2.758.077-.02c.365.026.983.196 1.856.508a.355.355 0 0 0 .254.117l.117-.058.918 1.191c.208.3.312.534.312.703.13.378.196.749.196 1.114 0 .338-.235.507-.703.507-.118 0-.332-.052-.645-.156-.026 0-.072.072-.137.215h-.058c-.065 0-.163-.254-.293-.762-.378-1.068-.586-1.608-.625-1.62-.183-.105-.56-.157-1.133-.157h-.059l-1.484.37c-.365.248-.547.411-.547.49 0 1.77.065 2.655.195 2.655.3.209.873.313 1.72.313.155.039.234.104.234.195.247.209.37.43.37.664 0 .547-.397.82-1.19.82h-.04c-.195 0-.417-.071-.664-.214l-.117-.02c-.26.026-.39.065-.39.117v2.657c0 .351.032.755.097 1.21l-.04.567v.527c0 .092.385.196 1.153.313.69 0 1.1.065 1.23.195l.079.059c-.078 0-.163.377-.254 1.133l-.8-.118-.255.04c-.898-.13-1.627-.196-2.187-.196l-1.602.04c-.052-.053-.078-.15-.078-.294v-.43c0-.416-.026-.703-.078-.859 0-.09.11-.136.332-.136.13 0 .384.058.762.175h.293c.13 0 .214-.039.254-.117v-.039c-.118-.286-.176-.762-.176-1.426a3.387 3.387 0 0 1-.117-.8v-.04c0-.325.09-1.145.273-2.46 0-.04-.117-.072-.352-.098H2.07c-.547.17-1.015.254-1.406.254l-.293-.059c.065-1.21.143-1.816.234-1.816.013-.04.066-.059.157-.059h.097c1.003-.026 1.504-.065 1.504-.117 0-.651-.006-1.237-.02-1.758l-.019-.8v-.079l-.117-.351c.182-.326.365-.58.547-.762l.918-.957a4.176 4.176 0 0 1 1.777-.371Zm-1.505.762c.482 0 .84-.098 1.075-.293v-.059h-.04c-.377 0-.722.117-1.035.352Zm2.95-.04c.22.26.423.391.605.391v-.137c-.156-.208-.339-.312-.547-.312h-.02c-.025 0-.038.02-.038.058Zm-1.25.04-.176.039v.039c.026.039.071.058.136.058h.274l.059-.039c0-.065-.098-.097-.293-.097Zm-.41.527-.06.058v.02h.06l.058-.04v-.038h-.059Zm2.148.976h-.04v.04c0 .169.066.325.196.468h.078l.02-.136c-.013-.248-.098-.372-.254-.372Zm.39 1.23.059.02h.078l.02-.097V5.94h-.02a.39.39 0 0 0-.137.313ZM.683 8.286v.078l.06.04H.84c.078-.014.137-.072.176-.176l-.059-.059H.879a.202.202 0 0 0-.195.117Zm.958.078-.098.078v.04c0 .09.039.156.117.195.091 0 .208-.052.352-.156 0-.04-.117-.092-.352-.157h-.02Zm2.402.235h-.098v.058c.052.091.15.137.293.137h.117v-.059c-.052-.09-.156-.136-.312-.136Zm.977.234h-.06v.04h.06v-.04Zm-1.993.02h-.02v.156l.06.039V8.89l-.04-.04ZM1.7 9.027l-.039.059v.039l.117.02h.059l.02-.06c0-.012-.053-.032-.157-.058ZM5 9.34l.078.02c.378-.066.567-.137.567-.215v-.06h-.118C5.176 9.126 5 9.21 5 9.34ZM.879 9.242c-.078.117-.117.215-.117.293v.078l.039.04h.215l.039-.04a.481.481 0 0 0-.176-.37Zm1.289.098-.04.058v.02h.235l.059-.059v-.02h-.254Zm.781.586H2.91l-.058.547.039.332h.02l.038-.313v-.566Zm.235.527h-.059v.059h.059v-.059Zm-.04.352h-.078v.176l.079-.079v-.097Zm-.039.332-.078-.02-.02.02v.039l.02.117h.078v-.156Zm-.292.351.078.215-.04.254c.04.417.092.625.157.625h.02c.064 0 .104-.234.117-.703v-.098c0-.26-.079-.39-.235-.39h-.058c-.026 0-.04.032-.04.097Zm.195 2.032H2.91v.078l.078.039h.04l-.02-.117Zm-.059.527H2.91c-.013.091-.02.286-.02.586v.02h.098l.078-.079v-.254c-.039-.182-.078-.273-.117-.273Zm-1.347.683h-.059v.079c0 .052.104.084.312.097l.215-.039v-.02c-.208-.077-.364-.117-.468-.117Zm3.496.606v.039l.175.02c.26-.027.391-.06.391-.098l-.02-.04h-.351c-.13 0-.195.027-.195.079Zm-3.575.215-.039.039v.02c0 .09.267.15.801.175l.04-.039c-.17-.13-.391-.195-.665-.195h-.137Zm1.036 0v.039c.117.13.227.195.332.195h.136v-.039c-.169-.13-.325-.195-.468-.195Zm2.968.176-.078.058v.04l.137.155h.059l.039-.058v-.137l-.079-.058h-.078Zm-1.933.02H3.3v.038c0 .078.123.124.37.137h.313l.059-.059c0-.078-.15-.117-.45-.117Zm6.992-10.333 2.422-.059c.208 0 .644.092 1.308.274.756.716 1.205 1.276 1.348 1.68.287.3.514.892.684 1.777.208.208.312.67.312 1.387l.02.488-.078 1.934c0 .39.24.872.722 1.445.443.43.73.644.86.644v.04c0 .156-.228.403-.684.742-.338.338-.553.507-.645.507h-.02c-.207-.026-.735-.41-1.581-1.152-1.537.6-2.311.905-2.324.918a5.766 5.766 0 0 1-1.7.234h-.097c-.703-.117-1.302-.39-1.797-.82-.091-.078-.28-.403-.566-.976-.235-.287-.352-.639-.352-1.055v-.567c0-.364.098-.703.293-1.015.17-.534.462-1.042.879-1.524.208-.247.417-.403.625-.468.677-.365 1.348-.547 2.012-.547l.878-.02h.118c.494 0 .846.072 1.054.215h.118c.065 0 .097-.026.097-.078a6.37 6.37 0 0 0-.703-1.758c-.286-.482-.82-.723-1.601-.723l-.801-.117c-.69.144-1.035.287-1.035.43-.274.352-.437.788-.489 1.309-.026.065-.26.097-.703.097l-.117.04c-.052 0-.117.11-.195.331-.365-.052-.547-.13-.547-.234.026-.078.071-.547.136-1.406.209-.6.704-1.153 1.485-1.66.364-.209.586-.313.664-.313Zm2.187.332-.039.059.059.078h.117l.02-.04-.059-.097h-.098Zm1.485.156h-.04v.04c.105.104.196.156.274.156h.02v-.04c-.104-.104-.19-.156-.254-.156ZM11.133 6v.059c.013.039.078.058.195.058s.28-.039.488-.117v-.078h-.078c-.286 0-.488.026-.605.078Zm-1.758.625v.04h.02c.117 0 .293-.125.527-.372v-.059h-.02c-.13 0-.306.13-.527.391Zm2.715-.137-.098.078.059.098h.254l.058-.059-.117-.117h-.156ZM9.219 8.07l-.059.04v.292h.02c.052-.013.078-.058.078-.136v-.157l-.04-.039Zm7.09 1.563h-.02v.039c.026.104.052.156.078.156l.02-.098c-.026-.065-.052-.097-.078-.097Zm-.45.683-.058.04v.058c.052.195.104.293.156.293h.04c0-.17-.04-.3-.118-.39h-.02Zm-5.722.118-.215.097v.098h.039c.091 0 .156-.052.195-.156v-.04h-.02Zm-.215 1.855c.091.781.202 1.172.332 1.172l.195.254v.02l-.176-.02v.058c.248.339.756.652 1.524.938.091.052.221.091.39.117.235 0 1.133-.384 2.696-1.152.104-.065.156-.137.156-.215v-.098a17.91 17.91 0 0 1-.293-1.875l-.039-.02c0-.143-.143-.26-.43-.35-.963-.274-1.62-.411-1.972-.411-.99.221-1.667.553-2.032.996-.234.235-.351.43-.351.586Zm5.879-1.27-.059-.039v.06h.059v-.02Zm.078.372h-.117v.078l.058.058.059-.058v-.078Zm-.625.488-.059.059.059.078.078-.02v-.059l-.059-.058h-.02Zm.703.059h-.059v.019c.027.495.079.742.157.742l.039-.039v-.039c0-.273-.046-.501-.137-.684Zm-.762.624-.02.02v.117l.06.078h.019l.078-.078v-.117l-.059-.02h-.078Zm1.66 1.836h-.058v.118c.052.169.11.254.176.254h.058v-.06c-.052-.207-.11-.312-.175-.312Zm-7.187.059-.04.04v.019l.04.039h.098v-.04l-.059-.058h-.039Zm6.582.254-.059.059c.04.09.092.15.157.175h.02l.077-.078v-.039l-.097-.117h-.098Zm-2.832.273v.04h.078c.182 0 .423-.079.723-.235v-.02h-.078c-.443.053-.684.124-.723.215Zm3.262.059-.04.078v.04l.079.077h.078l.058-.039v-.039l-.097-.117h-.078Zm-4.825.156-.058.059c.026.065.078.098.156.098.143-.027.215-.06.215-.098v-.02l-.059-.039h-.254Zm-2.128.274-.059.078c.052.117.378.267.977.449.195.091.455.137.78.137v-.02c0-.039-.247-.11-.741-.215a3.12 3.12 0 0 1-.899-.43h-.058Zm11.699-8.477.547-.039c.169.82.162 1.244-.02 1.27-.17 0 .065.748.703 2.246.287.716.515 1.237.684 1.562.377.925.625 1.387.742 1.387.04 0 .104.078.195.234l.02.04h.215c.143 0 .384-.567.722-1.7 1.263-2.37 1.621-3.561 1.075-3.574a.322.322 0 0 0-.098.02c.078-.521.098-.964.059-1.329l.097-.078c1.693.04 2.54.104 2.54.195.064 0 .097.332.097.997-.091.39-.208.585-.352.585-.143-.013-.221-.013-.234 0-.013.014.02.033.098.06h-.137c-.508.858-.762 1.418-.762 1.679-.156.638-.358 1.08-.605 1.328-.404 1.172-.716 1.98-.938 2.422-.09.104-.182.442-.273 1.015l-.84 1.368A10.913 10.913 0 0 1 23.3 19.3l-.957.644c-.39.104-.697.157-.918.157-.964 0-1.445-.098-1.445-.293-.105-.066-.19-.248-.254-.547-.196-.196-.437-.88-.723-2.051v-.04c0-.13.13-.194.39-.194.222 0 .613-.118 1.172-.352.17 0 .404.599.704 1.797.09.273.162.41.214.41h.157c.104-.039.208-.195.312-.469.078 0 .339-.338.781-1.015.196-.417.404-.801.625-1.153l.059-.234v-.39c-.013-.196-.15-.489-.41-.88a9.316 9.316 0 0 1-.625-1.25 33.525 33.525 0 0 0-2.09-4.57.243.243 0 0 0-.176-.078l-1.191.059-.059-.059-.039-.645-.039-.84.352-.156 1.933-.195.352.04Zm5.508.527-.235-.058.45.195.273-.058h.039l.332.039V7.6c0-.052-.13-.09-.39-.117h-.294c-.117 0-.175.013-.175.04Zm1.367-.058-.04.039v.02a.175.175 0 0 0 .118.097l.351-.039v-.059c-.013-.039-.058-.058-.136-.058H28.3Zm-9.238.762-.04.02v.155l.098.078h.254c.273-.013.41-.052.41-.117 0-.052-.24-.097-.723-.136Zm1.796.214-.058.04c0 .156.09.358.273.605h.02V8.87c0-.221-.059-.364-.176-.43h-.059Zm7.168-.293v.04l.078.078c.456-.105.684-.19.684-.254l-.059-.059h-.078c-.377.04-.586.104-.625.195Zm-.273-.097-.059.039v.098c.04.078.117.117.235.117l.02-.02v-.098l-.137-.136h-.06Zm-.078.664h-.098v.098h.098v-.098Zm-.078.566h-.059c-.508.99-.788 1.504-.84 1.543v.137c0 .052.059.143.176.273l-.137.391h.04c.182-.273.442-.95.78-2.031l.04-.313Zm-2.852 5.508v.098h.098c.208 0 .475-.625.8-1.875 0-.026.066-.098.196-.215 0-.104.039-.176.117-.215v-.02l-.059-.156c.066-.13.066-.136 0-.02-.026.053-.078.15-.156.294-.195.351-.37.67-.527.957-.052.182-.209.566-.469 1.152Zm-2.11-2.95h-.019v.04c.274.755.436 1.133.488 1.133h.02v-.04c-.247-.755-.41-1.132-.488-1.132Zm3.419 1.74h.02c.208 0 .377-.496.507-1.485h-.02c-.052 0-.117.163-.195.488-.182.443-.286.775-.312.996Zm-3.516-.958-.059.059v.058l.06.04.077-.04v-.02l-.078-.097Zm.586.488-.059.059v.039l.118.098c.039 0 .058-.02.058-.059a.52.52 0 0 0-.098-.137h-.019Zm1.426 3.047v.04h.097c.092 0 .274-.326.547-.977v-.02c-.182 0-.397.32-.644.957Zm-.742-.605v.02h.02c.103 0 .155-.046.155-.137v-.118h-.078c-.065.026-.097.105-.097.235Zm.566 1.308-.156.235.02.058c.116-.09.175-.189.175-.293h-.039Zm-4.453.391-.059.059a.85.85 0 0 1 .176.39l.156.156.078-.02v-.097a.594.594 0 0 0-.253-.488h-.098Zm2.558 1.25v.02c.13 0 .26-.163.391-.489h-.039c-.156.078-.273.235-.352.469Zm-2.168-.293h-.039v.059c0 .143.053.247.157.312l.058-.039V18.5c0-.104-.058-.202-.175-.293Zm2.637.703-.176.235.04.039h.019c.352-.183.56-.365.625-.547-.052-.052-.104-.078-.156-.078h-.078c-.117 0-.209.117-.274.351Zm-2.11.04h-.116v.058l.078.098h.176l.058-.04c0-.065-.065-.104-.195-.117Zm.938.37.352.254h.078c.052-.013.078-.065.078-.156v-.098c-.013-.039-.065-.058-.156-.058h-.176c-.117 0-.176.02-.176.058Zm-.683.176-.02.059c.04.09.124.136.254.136h.274l.039-.058v-.02c0-.065-.078-.104-.235-.117h-.312ZM33.066 4.008l-.254-.352c.391-.039.652-.058.782-.058 1.497-.078 2.324-.144 2.48-.196l1.094-.039c.208.013.313.072.313.176-.04.052-.06.137-.06.254.079.091.118.15.118.176v.605l.02.02c0 .286-.287.774-.86 1.465a5.825 5.825 0 0 0-.625 1.132c-.052.052-.215.352-.488.899a37.604 37.604 0 0 0-1.973 3.398c-.052.026-.221.287-.508.782-.312.377-.716 1.009-1.21 1.894v.02c.026.065.104.097.234.097h.02l1.874-.117c.6 0 1.387.059 2.364.176.117 0 .24-.397.37-1.192l.118.137a.562.562 0 0 1 .254-.293c.703.117 1.035.124.996.02.13.013.24.937.332 2.773-.17-.013-1.595.013-4.277.078l-2.774.235a1.163 1.163 0 0 1-.527.117l-.41-.156-.469.058h-.04c-.35 0-.552-.065-.605-.195l.04-.098v-.234c.026-.469.631-1.472 1.816-3.008.013-.065.43-.71 1.25-1.934a56.671 56.671 0 0 1 2.754-4.257c.117-.17.403-.515.86-1.036l.019-.097c-.065-.04-.202-.059-.41-.059h-.04c-.572 0-1.555.11-2.949.332h-.078l-1.015-.078-.157.332.137 1.113c0 .144-.43.254-1.289.332-.17-.351-.254-.67-.254-.957V5.57l.04-1.25-.118-.312c.039 0 .13-.11.273-.332.065-.065.3.013.703.234-.104-.104-.156-.17-.156-.195v-.04l.02-.019.312.235c.521-.052.97-.111 1.348-.176l-.137.039v.039h.098c.456.234.684.312.684.234l-.04-.02Zm.352-.117c0 .052.618.09 1.855.117l.45.078a.859.859 0 0 1 .351-.078h.352l.508-.371v-.04a2.271 2.271 0 0 1-.723.118c-1.862.039-2.793.098-2.793.176Zm1.719 3.496v.097c.117 0 .43-.37.937-1.113l.82-1.074v-.04h-.078c-.234 0-.527.242-.879.723-.143.313-.41.782-.8 1.407ZM36.523 4.3l-.156.039-1.289-.02a2.994 2.994 0 0 1-.684.254v.02l.274.058h.137l.996-.175c.3-.013.547-.059.742-.137V4.3h-.02Zm-5.43.097h-.019l.02.41h.039c.104-.104.182-.156.234-.156l.488.02h.332v-.059c0-.078-.364-.15-1.093-.215Zm2.09 6.895v.02c.13 0 .28-.254.45-.762.156-.17.234-.293.234-.371v-.04c-.195 0-.423.385-.683 1.153Zm4.649 4.219c.04.117.11.175.215.175.065 0 .098-.019.098-.058l-.06-.723h-.058c-.078 0-.143.202-.195.606Zm-4.707.039v.039l.293.02h.137c.455 0 .787-.02.996-.06v-.058l-.117-.02h-.02c-.599 0-1.029.027-1.289.079Zm-1.191.136v.06l.039.038h.039c.338 0 .54-.052.605-.156 0-.013-.11-.033-.332-.059-.234.026-.351.065-.351.117Zm-.528-1.894-.039.098v.039c.287-.274.514-.573.684-.899v-.058a4.18 4.18 0 0 0-.645.82Zm4.063-9.688-.957.04h-.04v.02h1.368l.039-.02-.41-.04Zm-3.34.997v.097h.02l.663-.097v-.02l-.058-.059h-.293a.733.733 0 0 0-.332.079Zm-2.402 10.644.058.078h.313l.078-.078v-.02l-.078-.097h-.137c-.143 0-.221.039-.234.117Zm2.207-11.582-.059.059v.058l.254.02c.156 0 .234-.026.234-.078v-.02l-.117-.039h-.312Zm-1.7 2.5.04.078h.038a.522.522 0 0 0 .215-.273l-.039-.059h-.078c-.065.026-.123.11-.176.254Zm1.543 7.969h.489l.058-.059-.058-.039h-.118c-.247 0-.37.033-.37.098Zm5.078.703-.117.098.04.058h.117c.09 0 .143-.026.156-.078l-.078-.078h-.117Zm-2.07-.957-.078.078c0 .04.026.059.078.059.156-.026.235-.059.235-.098l-.02-.04h-.215Zm2.149-.313-.078.098v.078l.038.04h.02c.065-.027.098-.079.098-.157v-.059h-.078Zm-5.313 1.68-.058.078v.078h.195l.058-.078-.039-.078h-.156Zm4.746-.762h-.156v.02c0 .039.059.072.176.098l.039-.04v-.019l-.059-.059ZM33.691 4.242h-.097v.04c.013.038.065.058.156.058V4.3l-.059-.058Zm-.879-.586h-.019l-.313.059c.118-.04.228-.059.333-.059Zm-2.519 1.836h-.059v.059l.059.039h.059v-.04l-.059-.058Zm5.156 9.942h-.078v.058h.078v-.058Zm8.262-9.239c.547 0 1.21.235 1.992.703.664.495.996.834.996 1.016.521 1.094.782 1.751.782 1.973l.019.156c-.195.456-.293.768-.293.938L47.09 11h-1.66c-.157 0-.345.02-.567.059-1.875-.157-3.19-.235-3.945-.235h-.41c-.156.235-.235.404-.235.508.092.143.137.371.137.684 0 .494.078.787.235.879l.02.097v.02l-.118-.059v.059l.176.195c0 .17.117.384.351.645.43.755.899 1.223 1.407 1.406.43.143.917.215 1.464.215.091 0 .28-.085.567-.254.234-.052.729-.476 1.484-1.27v-.058c0-.026-.091-.053-.273-.079l-.04-.097c.3-.573.658-.95 1.075-1.133.117.117.358.3.722.547.287.443.671.963 1.153 1.562v.079c-.417.546-.716.82-.899.82h-.078c0-.287-.175-.45-.527-.488-.065 0-.352.214-.86.644-.299.234-.813.456-1.542.664-.847.17-1.446.254-1.797.254l-1.114-.39c-.625 0-1.198-.34-1.718-1.016a2.925 2.925 0 0 1-.547-.84c0-.104-.143-.645-.43-1.621a4.654 4.654 0 0 1-.137-1.094v-.02c0-1.731.521-3.248 1.563-4.55.13-.326.43-.567.898-.723.313-.091.69-.163 1.133-.215.117-.052.495-.052 1.133 0Zm-1.797.41v.02h.04c.207 0 .598-.072 1.171-.215.117-.013.176-.045.176-.098l-.059-.058h-.02c-.377 0-.8.104-1.269.312l-.039.04Zm-.781.332v.02l.058.04h.02c.26-.066.39-.131.39-.196v-.117l-.078-.079h-.039c-.234.079-.351.19-.351.332Zm3.008-.195h-.586v.04c0 .051.267.09.8.116h.02V6.82c0-.026-.078-.052-.234-.078Zm-1.387.293v.02c0 .052.267.117.8.195l.04-.02v-.078c-.104-.143-.28-.215-.528-.215h-.058c-.17.014-.254.046-.254.098Zm1.191.117v.02c.742.43 1.14.644 1.192.644h.02l.195-.078.117.04.02-.04v-.02c-.053-.038-.163-.077-.333-.116l-.39-.176c-.105-.222-.313-.332-.625-.332h-.059c-.091.013-.137.032-.137.058Zm-2.324.567c.13-.104.39-.215.781-.332v-.04l-.02-.038h-.194c-.378.104-.567.24-.567.41Zm-1.035 1.289v.058c0 .144 1.185.306 3.555.489l.195.058.254-.02c.52.17.872.255 1.054.255 0 .039.04.071.118.097a.605.605 0 0 0 .117-.332v-.37c0-.17-.326-.548-.977-1.134-.3-.3-.638-.468-1.015-.507l-.664-.118c-1.081.222-1.79.489-2.13.801a3.265 3.265 0 0 1-.507.723Zm.215-1.172v.039h.039c.17-.04.254-.085.254-.137v-.02h-.098c-.065 0-.13.04-.195.118Zm4.668.273c.026.105.084.157.175.157h.04l.039-.059V8.09l-.078-.098c-.118 0-.176.04-.176.117Zm-5.04.098-.038.059v.02h.039l.078-.06v-.019h-.078Zm5.528.156h-.078c.143.43.247.664.312.703h.078l.06-.039c-.105-.416-.216-.625-.333-.625l-.039-.039Zm-5.352.352c.079-.013.118-.065.118-.156v-.02c-.078.026-.117.085-.117.176Zm6.016.527-.059.04v.136l.06.078c.051-.013.077-.059.077-.137v-.078l-.02-.039h-.058Zm-6.23.274v.078l.039.039h.039c.09-.04.169-.11.234-.215v-.059h-.098c-.078 0-.15.052-.214.157Zm-.801-.118c-.104.105-.196.365-.274.782h.04c.078 0 .195-.228.351-.684-.026-.065-.065-.098-.117-.098Zm1.992.235v.058c.247.17.697.254 1.348.254h.175l.254-.02v-.077a10.219 10.219 0 0 0-1.777-.215Zm3.574.508h-.058v.058h.058v-.058Zm-3.77.156v.039c.261.065.951.13 2.071.195v.04l-.41.058c0 .039.17.059.508.059.547 0 .82-.027.82-.079 0-.13-.996-.234-2.988-.312Zm-1.972.137h-.098v.117c0 .078.02.117.059.117.065 0 .104-.065.117-.195l-.078-.04Zm1.582.039-.098.02v.116h.098V10.472Zm-.625.156v.02h.02l.332-.04v-.039l-.059-.078h-.059c-.117 0-.195.046-.234.137Zm4.746.039c0 .052.117.078.352.078l.175-.02v-.039c0-.052-.123-.078-.37-.078-.105.026-.157.046-.157.059Zm-5.8.508v.078c-.014.039-.02.13-.02.273v.079c0 .234.065.442.195.624h.02c0-.625-.065-.976-.196-1.054Zm.351 1.699h-.059v.04l.059.038h.039v-.039l-.039-.039Zm.137.332-.02.02v.039c.052.208.13.312.235.312V13.52c0-.105-.072-.209-.215-.313Zm6.367.176.039.058h.098c.078 0 .123-.026.136-.078l-.078-.078h-.02c-.09 0-.15.033-.175.098Zm-.45 1.133.04.02h.02c.143 0 .234-.085.273-.255v-.039c-.144 0-.254.091-.332.274Zm1.368-.04.02.02h.058a.245.245 0 0 0 .117-.215h-.058c-.092.052-.137.117-.137.196Zm.683-.195h-.02v.04c.04.156.099.234.177.234h.02l.038-.04v-.019c-.026-.143-.097-.215-.215-.215Zm-1.132.41.058.04c.196-.066.293-.15.293-.254v-.04h-.02c-.182 0-.292.085-.331.254Zm-1.524.43h.04c.103-.039.162-.104.175-.195l-.02-.02c-.13.078-.195.15-.195.215Zm1.153.098h.078c.13-.117.195-.202.195-.254h-.02c-.169.052-.254.137-.254.254Zm-5.547.176h-.059v.078c.026.065.137.136.332.214l.078.06c-.143-.222-.26-.34-.351-.352Zm1.367.078h-.02v.02c0 .051.137.11.41.175l.02-.02v-.039c-.17-.09-.306-.136-.41-.136Zm1.152.214h-.058v.06h.058v-.06Zm2.031.293c.13 0 .235-.097.313-.293h-.059c-.169.092-.254.19-.254.293Zm-1.367.196-.41-.04h-.078c-.117 0-.182.027-.195.079v.039l.078.058h.351c.404 0 .88-.071 1.426-.214-.026-.078-.104-.117-.234-.117h-.098c-.312 0-.592.065-.84.195Zm5-14.903.117-.02h.157c1.145.131 1.823.294 2.03.49.092 0 .177.253.255.76l-.098.177v.058c.143.17.241.99.293 2.461 0 2.591.072 4.265.215 5.02h.078c.703-.573 1.79-1.36 3.262-2.364.117 0 .215-.579.293-1.738 0-.273.13-.41.39-.41l.782-.059c1.172 0 1.875.124 2.11.372v.039l-.06.058c-.234-.091-.416-.137-.546-.137l-.059.079v.02c0 .077.189.136.566.175.105 0 .157.306.157.918 0 .247-.098.371-.293.371-.052 0-.15.091-.293.273l-.059.02-.39-.02h-.079c0 .144-.15.287-.449.43-.052 0-.078.033-.078.098l.078.136-1.875 1.29-.02.058c.014.078.658 1.4 1.934 3.965.183.378.3.677.352.898h-.117l-.118-.117h-.058c0 .156.247.235.742.235.872 0 1.309.078 1.309.234l-.157.195c.17.287.254.71.254 1.27 0 .182-.09.273-.273.273l-.176.02c-.313-.052-1.074-.078-2.285-.078h-.117c-.157 0-.274-.202-.352-.606a9.514 9.514 0 0 0-.39-1.855c-.3-.677-.736-1.582-1.31-2.715-.22-.651-.39-.977-.507-.977-.221.026-.573.228-1.055.606-.169.143-.293.215-.37.215-.079-.026-.118-.053-.118-.079v-.019l.059-.098v-.02h-.117c-.079 0-.163.177-.254.528l.02.117c-.105.065-.157.176-.157.332l.039 2.09c0 .17.28.28.84.332.091.078.293.17.605.274l.078.195-.02.293v.215l.06.273v.04a.575.575 0 0 1-.294.253l-.019-.02h-.117v.079c0 .09.09.17.273.234v.04c0 .038-.078.07-.234.097l-.918-.235c-1.263-.065-2.083-.136-2.461-.214l-.273.058c-.17-.078-.254-.286-.254-.625v-.117l-.02-.02c0-.22.098-.403.293-.546h.078v.293l.078.078h.254l-.078-.098v-.059l.156-.019h.196l-.235-.234.274-.059v-.059c-.013-.039-.078-.058-.196-.058h-.078l-.41.058v-.039c0-.09.293-.182.879-.273.143-.04.365-.078.664-.117l.059-.078v-.02c0-.026-.091-.039-.274-.039-.104 0-.156-.56-.156-1.68-.078-1.354-.202-2.285-.371-2.793-.078-3.242-.182-5.175-.313-5.8 0-.04-.227-.079-.683-.118l-.567.137c-.143-.143-.221-.26-.234-.351l-.04-1.211-.019-.079c.026-.195.052-.292.078-.292l.215.039v-.04c0-.052-.052-.15-.156-.292v-.098c.104 0 .156-.02.156-.059l-.078-.136v-.079Zm1.817 1.114v.039c.052.13.13.195.234.195a.52.52 0 0 0 .137-.351l-.078-.02c-.144 0-.241.046-.293.137Zm-1.23.312v.04c0 .051.097.097.292.136v.04c-.247.012-.37.051-.37.116v.078l.058.059h.195c.195 0 .339-.117.43-.352l.078-.078c0-.078-.157-.117-.469-.117h-.078c-.091.013-.137.04-.137.078Zm1.542 1.719-.039.078v.39c0 .313.033.47.098.47h.02l.058-.06v-.273c-.013-.403-.059-.605-.137-.605Zm5.156 1.328-.117.02v.058l.02.059h.097l.04-.059v-.039l-.04-.039Zm-.468 1.133c.013.17.039.254.078.254h.136c.04 0 .06-.026.06-.078l-.099-.235.098-.351V6.41h-.039c-.156.078-.234.235-.234.469Zm1.777.156c0 .04.208.072.625.098.143-.026.215-.059.215-.098v-.078h-.527c-.209 0-.313.026-.313.078Zm-6.465.215h-.039v.098l.04.039.077-.078-.078-.059Zm4.61.059.078.078h.02c.103 0 .162-.026.175-.078V7.25h-.078c-.104 0-.17.02-.196.059Zm-.196.898v.02h.02c.052 0 .254-.118.605-.352.13-.013.196-.052.196-.117V7.68h-.118c-.156 0-.39.175-.703.527Zm-.039.86v.058h.04c.481-.13 1.093-.508 1.835-1.133l.04-.078h-.04c-.65.234-1.276.619-1.875 1.152Zm-3.36 1.425v.059h.079c.17 0 .312-.078.43-.235v-.058c-.183 0-.352.078-.508.234Zm2.364-.039c.091.248.189.371.293.371h.02v-.02c-.013-.286-.098-.429-.254-.429-.04 0-.059.026-.059.078Zm-2.89.059-.06.097v.02h.06l.038-.059v-.058h-.039Zm1.328.43v.038h.039c.26-.104.488-.247.683-.43v-.038c-.482.208-.722.351-.722.43Zm-1.368.566v.176l.04.039h.058c.065-.026.098-.098.098-.215v-.04c0-.143-.026-.286-.078-.429h-.02c-.065 0-.098.156-.098.469Zm3.672-.02h-.058v.02c.13.495.364 1.042.703 1.64h.097v-.058c0-.274-.247-.807-.742-1.602Zm-3.691.782v.273l.058.039c.105 0 .157-.065.157-.195v-.313l-.04-.039h-.058c-.078.013-.117.091-.117.235Zm4.726-.079h-.058v.04l.078.078h.02v-.079l-.04-.039Zm-4.511.82h-.078l-.02.118v.195h.02c.052-.013.078-.078.078-.195v-.117Zm4.316.352h-.039v.04c.104.325.215.527.332.605h.078c0-.104-.117-.32-.351-.645h-.02Zm-4.512.82.098.098h.02c.065-.026.097-.078.097-.156 0-.091-.02-.137-.058-.137-.105.065-.157.13-.157.196Zm5.274.47v.038l.058.079h.157l.078-.079c-.04-.078-.098-.117-.176-.117-.078.013-.117.04-.117.078Zm-3.32.35h-.06v.04l.079.059h.02v-.059l-.04-.04Zm-.723.235a.44.44 0 0 0 .41.254h.02l.058-.058c-.052-.157-.117-.26-.195-.313h-.078c-.105 0-.176.04-.215.117Zm6.445-.039h-.058v.098l.058.039h.059v-.098l-.059-.039Zm-7.715.04h-.039v.058h.078l-.039-.059Zm.645 0-.04.058h.098l-.058-.059Zm-2.11.234v.02l.02.038v.02l.918.02h.117c.417 0 .625-.033.625-.098v-.04c0-.025-.143-.045-.43-.058-.729.026-1.145.059-1.25.098Zm7.95-.04-.059.06.098.077h.078l.078-.078-.059-.058h-.136Zm.527.098h-.195v.02l.097.058h.098v-.078Zm.703.293v.332h.02c.052 0 .078-.136.078-.41v-.137c-.065.026-.098.098-.098.215Zm-6.894-.195-.059.039v.059l.293.02h.117v-.02c0-.066-.117-.098-.351-.098Zm-1.66.156-.06.04 2.11.292v-.058c0-.183-.397-.274-1.191-.274h-.86Zm2.324.254-.078.02v.039l.039.058h.156l.039-.058c-.013-.04-.065-.059-.156-.059Zm4.843.41v.02h.079l.41.039.468-.04h.06l.058-.038v-.02l-.117-.02h-.762c-.13 0-.196.02-.196.06Zm8.38-2.265.078.02c.09 0 .11.513.058 1.542h.02c-.013.13-.69.17-2.032.117-1.51.143-2.48.183-2.91.117v-.058c.013-.117.573-.176 1.68-.176.469-.039.716-.091.742-.156v-.02l-.195-.02c-1.537-.077-2.325.046-2.364.372l-.136.039c-.456-.04-.632-.52-.528-1.445.026-.235.554-.352 1.582-.352 0-.013.066-.02.196-.02l.39.118.176.02 3.242-.098Zm-.45.293h-.117v.039l.156.02.117-.02.02-.02-.176-.02Zm-.996.117.254.039c.13 0 .202-.026.215-.078v-.04h-.04c-.273 0-.416.027-.429.079Zm-1.055.039v.058h.04c.117.026.188.007.214-.058v-.04l-.078-.019c-.091 0-.15.02-.176.059Zm1.23.37.43.04c.417.039.651.013.704-.078v-.059l-.098-.039c-.69.026-1.035.072-1.035.137Zm-2.187-.312v.079h.02a.953.953 0 0 0 .664-.079v-.02l-.04-.019c-.116-.013-.331 0-.644.04Zm-1.718-.195-.079.059-.02.254.04.058h.02c.039 0 .084-.078.136-.234v-.078l-.058-.04-.04-.019Zm.586.059-.079.078-.02.02.118.019.04-.04.019-.058-.078-.02Zm2.949.43h-.059v.058h.098l-.04-.059Zm-.313.566v.02h.02c1.146.09 1.732.104 1.758.038v-.039c0-.026-.04-.065-.118-.117l-.02-.02c-.416-.038-.963 0-1.64.118Zm-3.32-.508-.059.02v.058h.059l.039-.039.02-.039h-.06Zm8.574-9.629 2.422-.059c.208 0 .644.092 1.309.274.755.716 1.204 1.276 1.347 1.68.287.3.515.892.684 1.777.208.208.312.67.312 1.387l.02.488-.078 1.934c0 .39.24.872.722 1.445.443.43.73.644.86.644v.04c0 .156-.228.403-.684.742-.338.338-.553.507-.644.507h-.02c-.208-.026-.736-.41-1.582-1.152-1.536.6-2.311.905-2.324.918a5.766 5.766 0 0 1-1.7.234H70c-.703-.117-1.302-.39-1.797-.82-.091-.078-.28-.403-.566-.976-.235-.287-.352-.639-.352-1.055v-.567c0-.364.098-.703.293-1.015.17-.534.462-1.042.879-1.524.208-.247.417-.403.625-.468.677-.365 1.348-.547 2.012-.547l.879-.02h.117c.495 0 .846.072 1.054.215h.118c.065 0 .097-.026.097-.078a6.37 6.37 0 0 0-.703-1.758c-.286-.482-.82-.723-1.601-.723l-.801-.117c-.69.144-1.035.287-1.035.43-.274.352-.436.788-.488 1.309-.027.065-.26.097-.704.097l-.117.04c-.052 0-.117.11-.195.331-.365-.052-.547-.13-.547-.234.026-.078.072-.547.137-1.406.208-.6.703-1.153 1.484-1.66.365-.209.586-.313.664-.313Zm2.188.332-.04.059.06.078h.116l.02-.04-.059-.097h-.097Zm1.484.156h-.04v.04c.105.104.196.156.274.156h.02v-.04c-.104-.104-.189-.156-.254-.156ZM70 6v.059c.013.039.078.058.195.058.118 0 .28-.039.489-.117v-.078h-.078c-.287 0-.489.026-.606.078Zm-1.758.625v.04h.02c.117 0 .293-.125.527-.372v-.059h-.02c-.13 0-.306.13-.527.391Zm2.715-.137-.098.078.059.098h.254l.059-.059-.118-.117h-.156ZM68.086 8.07l-.059.04v.292h.02c.052-.013.078-.058.078-.136v-.157l-.04-.039Zm7.09 1.563h-.02v.039c.026.104.052.156.078.156l.02-.098c-.026-.065-.052-.097-.078-.097Zm-.45.683-.058.04v.058c.052.195.104.293.156.293h.04c0-.17-.04-.3-.118-.39h-.02Zm-5.722.118-.215.097v.098h.04c.09 0 .155-.052.194-.156v-.04h-.02Zm-.215 1.855c.091.781.202 1.172.332 1.172l.195.254v.02l-.175-.02v.058c.247.339.755.652 1.523.938.091.052.221.091.39.117.235 0 1.133-.384 2.696-1.152.104-.065.156-.137.156-.215v-.098a17.938 17.938 0 0 1-.293-1.875l-.039-.02c0-.143-.143-.26-.43-.35-.963-.274-1.62-.411-1.972-.411-.99.221-1.667.553-2.031.996-.235.235-.352.43-.352.586Zm5.879-1.27-.059-.039v.06h.059v-.02Zm.078.372h-.117v.078l.058.058.06-.058v-.078Zm-.625.488-.058.059.058.078.078-.02v-.059l-.058-.058h-.02Zm.703.059h-.058v.019c.026.495.078.742.156.742l.039-.039v-.039c0-.273-.046-.501-.137-.684Zm-.761.624-.02.02v.117l.059.078h.02l.077-.078v-.117l-.058-.02h-.079Zm1.66 1.836h-.059v.118c.052.169.11.254.176.254h.058v-.06c-.052-.207-.11-.312-.175-.312Zm-7.188.059-.039.04v.019l.04.039h.097v-.04l-.059-.058h-.039Zm6.582.254-.058.059c.039.09.09.15.156.175h.02l.078-.078v-.039l-.098-.117h-.098Zm-2.832.273v.04h.078c.183 0 .424-.079.723-.235v-.02h-.078c-.443.053-.684.124-.723.215Zm3.262.059-.04.078v.04l.079.077h.078l.059-.039v-.039l-.098-.117h-.078Zm-4.824.156-.059.059c.026.065.078.098.156.098.144-.027.215-.06.215-.098v-.02l-.058-.039h-.254Zm-2.13.274-.058.078c.052.117.378.267.977.449.195.091.455.137.781.137v-.02c0-.039-.247-.11-.742-.215a3.12 3.12 0 0 1-.899-.43h-.058Zm16.212-8.575c.507 0 .937.359 1.289 1.075.065 0 .156.084.273.254l.254 1.445c-.091.156-.436.234-1.035.234h-.195c-.482-.078-.723-.24-.723-.488 0-.182-.15-.436-.45-.762-.038-.065-.318-.097-.84-.097-.494 0-1.093.13-1.796.39-.495.521-.82.925-.976 1.211.09 2.227.123 3.62.097 4.18 0 .117.078.176.234.176h.47c.208.013.312.052.312.117v.02l.078.253-.04 1.094-.116.156-.918.098h-.079l-.39.117c-1.498-.052-2.246-.11-2.246-.176-.26 0-.39-.117-.39-.351a6.528 6.528 0 0 1-.04-.723c0-.247.254-.41.762-.488 0-.104.176-.156.527-.156l.059-.02v-.039l-.117-5.352c0-.325-.085-.488-.254-.488h-.118c-.156 0-.416.072-.78.215l-.04-.04v-.038c0-.026.052-.059.156-.098v-.039c-.13 0-.195-.364-.195-1.094-.026 0-.045-.117-.059-.351.521-.404 1.068-.606 1.641-.606h.488c.196 0 .528.065.996.196v.058c-.117.183-.175.313-.175.39v.138c1.054-.47 2.5-.606 4.336-.41Zm-5.118 2.95v.097c.066.13.098.267.098.41-.013.053-.032.32-.058.801l.039.781h.02c.038 0 .09-.605.155-1.816.026 0 .04-.13.04-.39-.014-.118-.046-.176-.098-.176h-.04a.323.323 0 0 0-.156.293Zm-1.171 5.898-.254.02v.039c0 .065.189.097.566.097h.586l.137-.02c0-.064-.345-.11-1.035-.136Zm3.378-8.008v.04c.118 0 .274-.19.47-.567v-.098h-.02c-.339.104-.488.313-.45.625Zm2.52.625h.098c.065-.013.189-.169.37-.468v-.02c0-.026-.025-.04-.077-.04-.222.105-.332.242-.332.411-.013 0-.033.04-.059.117Zm-4.492.45h-.078l-.098.41c0 .065.04.13.117.195h.02c.039 0 .071-.091.098-.273l-.06-.332Zm2.715-1.504.097.39h.157v-.41l-.059-.059h-.059c-.09.013-.136.04-.136.079Zm-4.258 8.125-.04.039.02.039h1.075v-.059l-.665-.02h-.39Zm-.352-8.145a.467.467 0 0 0 .332.156l.02-.039V7.27l-.078-.098c-.183.026-.274.065-.274.117ZM80 15.57l.059.059h.293l.078-.078c0-.026-.033-.052-.098-.078-.221.026-.332.058-.332.097Zm5.625-7.754h-.059v.04c.105.104.196.156.274.156h.058v-.04c-.104-.104-.195-.156-.273-.156Zm-6.7-.918h-.058v.079l.117.136h.176v-.039l-.234-.176Zm-.585 1.153v.039h.058c.144 0 .222-.026.235-.078l-.04-.059h-.038c-.118 0-.19.033-.215.098Zm5-.918-.234.02v.019l.038.058h.196c.091 0 .143-.026.156-.078l-.039-.02h-.117Zm-3.086 6.289-.078.058v.157h.078l.078-.059v-.117l-.039-.04h-.04ZM77.91 15.55l-.078-.078-.039.078v.078l.039.059h.078v-.137Zm2.734-7.383-.078.02v.058l.078.059h.06l.058-.059v-.059l-.118-.019Zm3.087-1.055v.04h.136l.078-.06-.058-.058c-.104.026-.156.052-.156.078Zm1.288 0-.038.04v.019l.038.058h.079l.039-.058v-.02l-.04-.039h-.078Zm-4.746-.195-.097.039v.078h.097l.059-.078-.059-.039Zm-.058.352-.078.058v.04l.039.038.097-.078V7.27h-.058Zm4.746 1.62v.04H85l.078-.059v-.059h-.02c-.065.04-.097.066-.097.079Zm-.664-1.718-.078.058v.02h.097l.04-.04v-.038h-.06Zm-4.043 6.68h-.04v.078h.04v-.078ZM91.504.297c.286 0 .52.078.703.234-.156.417-.26 1.074-.313 1.973L91.72 4.3c0 .09.26.136.781.136 1.537 0 2.305.072 2.305.215.065 0 .143.04.234.118-.13.169-.195.293-.195.37v.06l.058.39-.254.86c0 .09.098.22.293.39v.039c-.312.104-.566.156-.761.156-.209-.013-.313-.045-.313-.098v-.039l.176-.02h.137l.078-.077v-.04l-.078-.019-1.309.02-1.074-.02c-.065 0-.137.365-.215 1.094h-.02l-.273-.313-.058.215v.117c.013.365.058.56.136.586.052 0 .098-.117.137-.351v-.137h.058l.02.059-.137 1.875c.157 2.695.293 4.043.41 4.043.066.416.228.625.489.625a.963.963 0 0 0 .527.136h.352l1.171-.058c.027 0 .072.345.137 1.035.026.208-.02.358-.137.45-.104.103-.286.155-.546.155l-1.504.04c-.82 0-1.51-.228-2.07-.684-.365-.13-.547-.52-.547-1.172-.026-.352-.072-1.393-.137-3.125l.234-2.656.059-1.153v-.156c-.091-.547-.248-.82-.469-.82h-1.27c-.195 0-.39.045-.585.137-.13-.013-.293-.19-.489-.528l.39-1.738c0-.052.789-.085 2.364-.098 0-.169.091-.384.274-.644.052-2.031.123-3.047.215-3.047V.57c0-.026-.033-.039-.098-.039V.473c0-.04.43-.098 1.289-.176Zm-.742.527h-.02v.117h.059V.863l-.04-.039Zm.84.04-.079.077v.04l.059.449h.04c.155-.157.234-.293.234-.41V.94l-.06-.078h-.194Zm-.704.722-.058-.059c-.026.13-.04.3-.04.508v.078h.04l.058-.332v-.195Zm.059.82h-.039L90.84 4.34v.02l.058.058h.04c.09 0 .136-.163.136-.488v-.45l-.039-.957c-.026-.078-.052-.117-.078-.117Zm-3.379 2.246c0 .091.059.137.176.137h.293c.534 0 1.029-.026 1.484-.078v-.04c0-.064-.319-.097-.957-.097h-.82c-.117 0-.176.026-.176.078Zm6.094-.078-.254.098H92.852v.058c.286.079.533.118.742.118h.449c.026 0 .039-.02.039-.059-.026-.143-.098-.215-.215-.215h-.195Zm.547.196-.059.039v.039l.059.02c.13 0 .202-.027.215-.079v-.02h-.215Zm-6.328.253-.04.04v.117c0 .13.437.195 1.31.195.442 0 .663-.033.663-.098 0-.156-.573-.24-1.718-.254h-.215Zm4.16.176-.059.059v.02c0 .064.235.104.703.117l.332-.02.45.078h.078c.09 0 .136-.039.136-.117h-.02l-1.484-.137h-.136Zm2.11.43-.079.078v.02l.078.058h.098c.117 0 .189-.039.215-.117l-.059-.04h-.254Zm-6.095.078-.078.059c0 .052.033.078.098.078l.488.02.528-.02.02-.02v-.039c-.157-.052-.45-.078-.88-.078h-.176Zm1.524.371-1.602-.058v.039c0 .09.495.136 1.485.136l.156-.039v-.02l-.04-.058Zm2.793.059h-.098v.058c.013.026.241.091.684.196h.039v-.04a1.097 1.097 0 0 0-.625-.214Zm.996.195c.352.117.664.176.937.176l.078-.078v-.117l-.058-.06h-.43c-.351 0-.527.027-.527.079Zm-2.715.703v.156l.059.059c.052-.013.078-.059.078-.137v-.078l-.04-.137h-.019c-.052.013-.078.059-.078.137Zm.723.352-.098-.078v.058l.078.078h.02v-.058Zm-.625.039h-.04l-.019.097v.098l.02.117h.078v-.273l-.04-.04Zm.039 1.347h-.059v.157l.059.078h.039V8.93l-.04-.157Zm-.938 2.48.059.548-.02.683.02.196h.059c.078 0 .117-.306.117-.918v-.45c0-.598-.026-.898-.079-.898-.09 0-.143.28-.156.84Zm1.27 1.544h-.04l-.019.137v.156c0 .091.026.143.078.156h.04c.052-.013.078-.059.078-.137-.013-.208-.06-.312-.137-.312Zm.156.84-.078.215c0 .299.065.488.195.566l.04-.078v-.176c-.014-.325-.066-.501-.157-.527Zm-.762.136h-.058v.293l.039.118h.02l.038-.04v-.332l-.039-.039Zm.567 1.23V15.142c.013.052.058.104.137.156h.136v-.04c0-.142-.091-.227-.273-.253Zm2.168.392h.078c.482-.079.722-.163.722-.254l-.039-.04c-.507.13-.761.228-.761.293Zm-2.656-.274h-.04v.078c.04.326.183.489.43.489h.195l.04-.06v-.019c0-.026-.118-.071-.352-.136l-.273-.352Z" fill="#fff"/></svg>