<svg width="24" height="24" fill="none" xmlns="http://www.w3.org/2000/svg"><path d="M22.16 13.069a1.125 1.125 0 0 0-1.126-.282 7.883 7.883 0 0 1-9.822-9.825 1.125 1.125 0 0 0-1.406-1.407 10.206 10.206 0 0 0-5.148 3.608 10.125 10.125 0 0 0 8.092 16.212 10.04 10.04 0 0 0 6.087-2.033 10.206 10.206 0 0 0 3.604-5.151 1.126 1.126 0 0 0-.282-1.122Zm-4.677 4.475A7.876 7.876 0 0 1 6.455 6.517a7.96 7.96 0 0 1 2.195-1.99A10.136 10.136 0 0 0 19.473 15.35a7.952 7.952 0 0 1-1.99 2.194Z" fill="#353044"/></svg>